<svg width="150" height="150" viewBox="0 0 150 150" fill="none" xmlns="http://www.w3.org/2000/svg">
<path d="M80.125 142.286C80.125 138.939 78.0996 132.076 75.9672 123.99C75.6372 122.738 73.8248 122.728 73.4871 123.978C71.3117 132.028 69.375 138.942 69.375 142.286C69.375 146.27 71.7815 149.5 74.75 149.5C77.7185 149.5 80.125 146.27 80.125 142.286Z" fill="#373236"/>
<path d="M80.125 7.21409C80.125 10.5607 78.0996 17.4237 75.9672 25.5103C75.6372 26.762 73.8248 26.7718 73.4871 25.5222C71.3117 17.4725 69.375 10.5585 69.375 7.21409C69.375 3.22986 71.7815 0 74.75 0C77.7185 0 80.125 3.22986 80.125 7.21409Z" fill="#373236"/>
<path d="M7.21409 80.125C10.5607 80.125 17.4237 78.0996 25.5103 75.9672C26.762 75.6372 26.7718 73.8248 25.5222 73.4871C17.4725 71.3117 10.5585 69.375 7.21409 69.375C3.22986 69.375 -1.0519e-07 71.7815 -2.34949e-07 74.75C-3.64707e-07 77.7185 3.22986 80.125 7.21409 80.125Z" fill="#373236"/>
<path d="M142.286 80.125C138.939 80.125 132.076 78.0996 123.99 75.9672C122.738 75.6372 122.728 73.8248 123.978 73.4871C132.028 71.3117 138.942 69.375 142.286 69.375C146.27 69.375 149.5 71.7815 149.5 74.75C149.5 77.7185 146.27 80.125 142.286 80.125Z" fill="#373236"/>
<path d="M126.305 118.704C123.939 116.337 117.653 112.917 110.428 108.706C109.309 108.055 108.021 109.329 108.665 110.452C112.819 117.682 116.339 123.94 118.704 126.305C121.521 129.122 125.506 129.705 127.605 127.606C129.704 125.506 129.122 121.521 126.305 118.704Z" fill="#373236"/>
<path d="M30.7963 23.195C33.1627 25.5615 36.5834 31.8465 40.7937 39.0724C41.4454 40.1909 40.1708 41.4794 39.0484 40.8346C31.8181 36.6808 25.5597 33.1613 23.1949 30.7964C20.3776 27.9792 19.7954 23.9937 21.8944 21.8946C23.9935 19.7955 27.979 20.3778 30.7963 23.195Z" fill="#373236"/>
<path d="M30.7963 126.305C33.1627 123.939 36.5834 117.653 40.7937 110.428C41.4454 109.309 40.1708 108.021 39.0484 108.665C31.8181 112.819 25.5597 116.339 23.1949 118.704C20.3776 121.521 19.7954 125.506 21.8944 127.605C23.9935 129.704 27.979 129.122 30.7963 126.305Z" fill="#373236"/>
<path d="M126.305 30.7963C123.939 33.1627 117.653 36.5834 110.428 40.7937C109.309 41.4454 108.021 40.1708 108.665 39.0484C112.819 31.8181 116.339 25.5597 118.704 23.1949C121.521 20.3776 125.506 19.7954 127.605 21.8944C129.704 23.9935 129.122 27.979 126.305 30.7963Z" fill="#373236"/>
</svg>
